<?xml version="1.0" encoding="utf-8" standalone="no"?>
<!DOCTYPE svg PUBLIC "-//W3C//DTD SVG 1.1//EN"
  "http://www.w3.org/Graphics/SVG/1.1/DTD/svg11.dtd">
<!-- Created with matplotlib (https://matplotlib.org/) -->
<svg height="504pt" version="1.1" viewBox="0 0 864 504" width="864pt" xmlns="http://www.w3.org/2000/svg" xmlns:xlink="http://www.w3.org/1999/xlink">
 <metadata>
  <rdf:RDF xmlns:cc="http://creativecommons.org/ns#" xmlns:dc="http://purl.org/dc/elements/1.1/" xmlns:rdf="http://www.w3.org/1999/02/22-rdf-syntax-ns#">
   <cc:Work>
    <dc:type rdf:resource="http://purl.org/dc/dcmitype/StillImage"/>
    <dc:date>2022-05-31T13:43:58.654657</dc:date>
    <dc:format>image/svg+xml</dc:format>
    <dc:creator>
     <cc:Agent>
      <dc:title>Matplotlib v3.3.2, https://matplotlib.org/</dc:title>
     </cc:Agent>
    </dc:creator>
   </cc:Work>
  </rdf:RDF>
 </metadata>
 <defs>
  <style type="text/css">*{stroke-linecap:butt;stroke-linejoin:round;}</style>
 </defs>
 <g id="figure_1">
  <g id="patch_1">
   <path d="M 0 504 
L 864 504 
L 864 0 
L 0 0 
z
" style="fill:#ffffff;"/>
  </g>
  <g id="axes_1">
   <g id="patch_2">
    <path d="M 54.02 402.096164 
L 853.2 402.096164 
L 853.2 10.8 
L 54.02 10.8 
z
" style="fill:#ffffff;"/>
   </g>
   <g id="patch_3">
    <path clip-path="url(#pd4687f7ce2)" d="M 90.346364 402.096164 
L 109.135862 402.096164 
L 109.135862 117.118566 
L 90.346364 117.118566 
z
" style="fill:#1f77b4;"/>
   </g>
   <g id="patch_4">
    <path clip-path="url(#pd4687f7ce2)" d="M 152.978025 402.096164 
L 171.767524 402.096164 
L 171.767524 139.039919 
L 152.978025 139.039919 
z
" style="fill:#1f77b4;"/>
   </g>
   <g id="patch_5">
    <path clip-path="url(#pd4687f7ce2)" d="M 215.609687 402.096164 
L 234.399185 402.096164 
L 234.399185 204.80398 
L 215.609687 204.80398 
z
" style="fill:#1f77b4;"/>
   </g>
   <g id="patch_6">
    <path clip-path="url(#pd4687f7ce2)" d="M 278.241348 402.096164 
L 297.030846 402.096164 
L 297.030846 139.039919 
L 278.241348 139.039919 
z
" style="fill:#1f77b4;"/>
   </g>
   <g id="patch_7">
    <path clip-path="url(#pd4687f7ce2)" d="M 340.873009 402.096164 
L 359.662508 402.096164 
L 359.662508 29.433151 
L 340.873009 29.433151 
z
" style="fill:#1f77b4;"/>
   </g>
   <g id="patch_8">
    <path clip-path="url(#pd4687f7ce2)" d="M 403.504671 402.096164 
L 422.294169 402.096164 
L 422.294169 182.882627 
L 403.504671 182.882627 
z
" style="fill:#1f77b4;"/>
   </g>
   <g id="patch_9">
    <path clip-path="url(#pd4687f7ce2)" d="M 466.136332 402.096164 
L 484.925831 402.096164 
L 484.925831 160.961273 
L 466.136332 160.961273 
z
" style="fill:#1f77b4;"/>
   </g>
   <g id="patch_10">
    <path clip-path="url(#pd4687f7ce2)" d="M 528.767994 402.096164 
L 547.557492 402.096164 
L 547.557492 204.80398 
L 528.767994 204.80398 
z
" style="fill:#1f77b4;"/>
   </g>
   <g id="patch_11">
    <path clip-path="url(#pd4687f7ce2)" d="M 591.399655 402.096164 
L 610.189154 402.096164 
L 610.189154 95.197212 
L 591.399655 95.197212 
z
" style="fill:#1f77b4;"/>
   </g>
   <g id="patch_12">
    <path clip-path="url(#pd4687f7ce2)" d="M 654.031317 402.096164 
L 672.820815 402.096164 
L 672.820815 117.118566 
L 654.031317 117.118566 
z
" style="fill:#1f77b4;"/>
   </g>
   <g id="patch_13">
    <path clip-path="url(#pd4687f7ce2)" d="M 716.662978 402.096164 
L 735.452476 402.096164 
L 735.452476 51.354504 
L 716.662978 51.354504 
z
" style="fill:#1f77b4;"/>
   </g>
   <g id="patch_14">
    <path clip-path="url(#pd4687f7ce2)" d="M 779.294639 402.096164 
L 798.084138 402.096164 
L 798.084138 73.275858 
L 779.294639 73.275858 
z
" style="fill:#1f77b4;"/>
   </g>
   <g id="patch_15">
    <path clip-path="url(#pd4687f7ce2)" d="M 109.135862 402.096164 
L 127.925361 402.096164 
L 127.925361 95.197212 
L 109.135862 95.197212 
z
" style="fill:#ff7f0e;"/>
   </g>
   <g id="patch_16">
    <path clip-path="url(#pd4687f7ce2)" d="M 171.767524 402.096164 
L 190.557022 402.096164 
L 190.557022 95.197212 
L 171.767524 95.197212 
z
" style="fill:#ff7f0e;"/>
   </g>
   <g id="patch_17">
    <path clip-path="url(#pd4687f7ce2)" d="M 234.399185 402.096164 
L 253.188683 402.096164 
L 253.188683 95.197212 
L 234.399185 95.197212 
z
" style="fill:#ff7f0e;"/>
   </g>
   <g id="patch_18">
    <path clip-path="url(#pd4687f7ce2)" d="M 297.030846 402.096164 
L 315.820345 402.096164 
L 315.820345 95.197212 
L 297.030846 95.197212 
z
" style="fill:#ff7f0e;"/>
   </g>
   <g id="patch_19">
    <path clip-path="url(#pd4687f7ce2)" d="M 359.662508 402.096164 
L 378.452006 402.096164 
L 378.452006 95.197212 
L 359.662508 95.197212 
z
" style="fill:#ff7f0e;"/>
   </g>
   <g id="patch_20">
    <path clip-path="url(#pd4687f7ce2)" d="M 422.294169 402.096164 
L 441.083668 402.096164 
L 441.083668 95.197212 
L 422.294169 95.197212 
z
" style="fill:#ff7f0e;"/>
   </g>
   <g id="patch_21">
    <path clip-path="url(#pd4687f7ce2)" d="M 484.925831 402.096164 
L 503.715329 402.096164 
L 503.715329 95.197212 
L 484.925831 95.197212 
z
" style="fill:#ff7f0e;"/>
   </g>
   <g id="patch_22">
    <path clip-path="url(#pd4687f7ce2)" d="M 547.557492 402.096164 
L 566.346991 402.096164 
L 566.346991 95.197212 
L 547.557492 95.197212 
z
" style="fill:#ff7f0e;"/>
   </g>
   <g id="patch_23">
    <path clip-path="url(#pd4687f7ce2)" d="M 610.189154 402.096164 
L 628.978652 402.096164 
L 628.978652 95.197212 
L 610.189154 95.197212 
z
" style="fill:#ff7f0e;"/>
   </g>
   <g id="patch_24">
    <path clip-path="url(#pd4687f7ce2)" d="M 672.820815 402.096164 
L 691.610313 402.096164 
L 691.610313 95.197212 
L 672.820815 95.197212 
z
" style="fill:#ff7f0e;"/>
   </g>
   <g id="patch_25">
    <path clip-path="url(#pd4687f7ce2)" d="M 735.452476 402.096164 
L 754.241975 402.096164 
L 754.241975 95.197212 
L 735.452476 95.197212 
z
" style="fill:#ff7f0e;"/>
   </g>
   <g id="patch_26">
    <path clip-path="url(#pd4687f7ce2)" d="M 798.084138 402.096164 
L 816.873636 402.096164 
L 816.873636 95.197212 
L 798.084138 95.197212 
z
" style="fill:#ff7f0e;"/>
   </g>
   <g id="matplotlib.axis_1">
    <g id="xtick_1">
     <g id="line2d_1">
      <path clip-path="url(#pd4687f7ce2)" d="M 109.135862 402.096164 
L 109.135862 10.8 
" style="fill:none;stroke:#b0b0b0;stroke-linecap:square;stroke-width:0.8;"/>
     </g>
     <g id="line2d_2">
      <defs>
       <path d="M 0 0 
L 0 3.5 
" id="mb47829d119" style="stroke:#000000;stroke-width:0.8;"/>
      </defs>
      <g>
       <use style="stroke:#000000;stroke-width:0.8;" x="109.135862" xlink:href="#mb47829d119" y="402.096164"/>
      </g>
     </g>
     <g id="text_1">
      <!-- агрегат наддува -->
      <g transform="translate(27.863199 453.470908)rotate(-25)scale(0.1 -0.1)">
       <defs>
        <path d="M 34.28125 27.484375 
Q 23.390625 27.484375 19.1875 25 
Q 14.984375 22.515625 14.984375 16.5 
Q 14.984375 11.71875 18.140625 8.90625 
Q 21.296875 6.109375 26.703125 6.109375 
Q 34.1875 6.109375 38.703125 11.40625 
Q 43.21875 16.703125 43.21875 25.484375 
L 43.21875 27.484375 
z
M 52.203125 31.203125 
L 52.203125 0 
L 43.21875 0 
L 43.21875 8.296875 
Q 40.140625 3.328125 35.546875 0.953125 
Q 30.953125 -1.421875 24.3125 -1.421875 
Q 15.921875 -1.421875 10.953125 3.296875 
Q 6 8.015625 6 15.921875 
Q 6 25.140625 12.171875 29.828125 
Q 18.359375 34.515625 30.609375 34.515625 
L 43.21875 34.515625 
L 43.21875 35.40625 
Q 43.21875 41.609375 39.140625 45 
Q 35.0625 48.390625 27.6875 48.390625 
Q 23 48.390625 18.546875 47.265625 
Q 14.109375 46.140625 10.015625 43.890625 
L 10.015625 52.203125 
Q 14.9375 54.109375 19.578125 55.046875 
Q 24.21875 56 28.609375 56 
Q 40.484375 56 46.34375 49.84375 
Q 52.203125 43.703125 52.203125 31.203125 
z
" id="DejaVuSans-1072"/>
        <path d="M 9.078125 0 
L 9.078125 54.6875 
L 47.65625 54.6875 
L 47.65625 47.515625 
L 18.109375 47.515625 
L 18.109375 0 
z
" id="DejaVuSans-1075"/>
        <path d="M 18.109375 8.203125 
L 18.109375 -20.796875 
L 9.078125 -20.796875 
L 9.078125 54.6875 
L 18.109375 54.6875 
L 18.109375 46.390625 
Q 20.953125 51.265625 25.265625 53.625 
Q 29.59375 56 35.59375 56 
Q 45.5625 56 51.78125 48.09375 
Q 58.015625 40.1875 58.015625 27.296875 
Q 58.015625 14.40625 51.78125 6.484375 
Q 45.5625 -1.421875 35.59375 -1.421875 
Q 29.59375 -1.421875 25.265625 0.953125 
Q 20.953125 3.328125 18.109375 8.203125 
z
M 48.6875 27.296875 
Q 48.6875 37.203125 44.609375 42.84375 
Q 40.53125 48.484375 33.40625 48.484375 
Q 26.265625 48.484375 22.1875 42.84375 
Q 18.109375 37.203125 18.109375 27.296875 
Q 18.109375 17.390625 22.1875 11.75 
Q 26.265625 6.109375 33.40625 6.109375 
Q 40.53125 6.109375 44.609375 11.75 
Q 48.6875 17.390625 48.6875 27.296875 
z
" id="DejaVuSans-1088"/>
        <path d="M 56.203125 29.59375 
L 56.203125 25.203125 
L 14.890625 25.203125 
Q 15.484375 15.921875 20.484375 11.0625 
Q 25.484375 6.203125 34.421875 6.203125 
Q 39.59375 6.203125 44.453125 7.46875 
Q 49.3125 8.734375 54.109375 11.28125 
L 54.109375 2.78125 
Q 49.265625 0.734375 44.1875 -0.34375 
Q 39.109375 -1.421875 33.890625 -1.421875 
Q 20.796875 -1.421875 13.15625 6.1875 
Q 5.515625 13.8125 5.515625 26.8125 
Q 5.515625 40.234375 12.765625 48.109375 
Q 20.015625 56 32.328125 56 
Q 43.359375 56 49.78125 48.890625 
Q 56.203125 41.796875 56.203125 29.59375 
z
M 47.21875 32.234375 
Q 47.125 39.59375 43.09375 43.984375 
Q 39.0625 48.390625 32.421875 48.390625 
Q 24.90625 48.390625 20.390625 44.140625 
Q 15.875 39.890625 15.1875 32.171875 
z
" id="DejaVuSans-1077"/>
        <path d="M 2.9375 54.6875 
L 55.328125 54.6875 
L 55.328125 47.515625 
L 33.546875 47.515625 
L 33.546875 0 
L 24.703125 0 
L 24.703125 47.515625 
L 2.9375 47.515625 
z
" id="DejaVuSans-1090"/>
        <path id="DejaVuSans-32"/>
        <path d="M 9.078125 54.6875 
L 18.109375 54.6875 
L 18.109375 32.375 
L 47.265625 32.375 
L 47.265625 54.6875 
L 56.296875 54.6875 
L 56.296875 0 
L 47.265625 0 
L 47.265625 25.203125 
L 18.109375 25.203125 
L 18.109375 0 
L 9.078125 0 
z
" id="DejaVuSans-1085"/>
        <path d="M 21.625 7.171875 
L 47.703125 7.171875 
L 47.703125 47.515625 
L 28.8125 47.515625 
L 28.8125 40.671875 
Q 28.8125 20.5625 23.046875 9.8125 
z
M 8.59375 7.171875 
Q 13.03125 9.125 14.984375 13.28125 
Q 19.78125 23.578125 19.78125 44.34375 
L 19.78125 54.6875 
L 56.734375 54.6875 
L 56.734375 7.171875 
L 63.921875 7.171875 
L 63.921875 -13.8125 
L 56.734375 -13.8125 
L 56.734375 0 
L 12.40625 0 
L 12.40625 -13.8125 
L 5.21875 -13.8125 
L 5.21875 7.171875 
z
" id="DejaVuSans-1076"/>
        <path d="M 32.171875 -5.078125 
Q 28.375 -14.84375 24.75 -17.8125 
Q 21.140625 -20.796875 15.09375 -20.796875 
L 7.90625 -20.796875 
L 7.90625 -13.28125 
L 13.1875 -13.28125 
Q 16.890625 -13.28125 18.9375 -11.515625 
Q 21 -9.765625 23.484375 -3.21875 
L 25.09375 0.875 
L 2.984375 54.6875 
L 12.5 54.6875 
L 29.59375 11.921875 
L 46.6875 54.6875 
L 56.203125 54.6875 
z
" id="DejaVuSans-1091"/>
        <path d="M 18.0625 25.203125 
L 18.0625 7.171875 
L 30.859375 7.171875 
Q 37.015625 7.171875 40.234375 9.484375 
Q 43.453125 11.8125 43.453125 16.21875 
Q 43.453125 20.609375 40.234375 22.90625 
Q 37.015625 25.203125 30.859375 25.203125 
z
M 18.0625 47.515625 
L 18.0625 32.375 
L 29.890625 32.375 
Q 34.96875 32.375 38.1875 34.390625 
Q 41.40625 36.421875 41.40625 40.046875 
Q 41.40625 43.65625 38.1875 45.578125 
Q 34.96875 47.515625 29.890625 47.515625 
z
M 9.078125 54.6875 
L 30.46875 54.6875 
Q 40.09375 54.6875 45.265625 51.171875 
Q 50.4375 47.65625 50.4375 41.15625 
Q 50.4375 36.140625 47.796875 33.171875 
Q 45.171875 30.21875 39.984375 29.5 
Q 46.1875 28.328125 49.609375 24.609375 
Q 53.03125 20.90625 53.03125 15.328125 
Q 53.03125 8.015625 47.390625 4 
Q 41.75 0 31.296875 0 
L 9.078125 0 
z
" id="DejaVuSans-1074"/>
       </defs>
       <use xlink:href="#DejaVuSans-1072"/>
       <use x="61.279297" xlink:href="#DejaVuSans-1075"/>
       <use x="113.818359" xlink:href="#DejaVuSans-1088"/>
       <use x="177.294922" xlink:href="#DejaVuSans-1077"/>
       <use x="238.818359" xlink:href="#DejaVuSans-1075"/>
       <use x="291.357422" xlink:href="#DejaVuSans-1072"/>
       <use x="352.636719" xlink:href="#DejaVuSans-1090"/>
       <use x="410.888672" xlink:href="#DejaVuSans-32"/>
       <use x="442.675781" xlink:href="#DejaVuSans-1085"/>
       <use x="508.056641" xlink:href="#DejaVuSans-1072"/>
       <use x="569.335938" xlink:href="#DejaVuSans-1076"/>
       <use x="638.476562" xlink:href="#DejaVuSans-1076"/>
       <use x="707.617188" xlink:href="#DejaVuSans-1091"/>
       <use x="766.796875" xlink:href="#DejaVuSans-1074"/>
       <use x="825.732422" xlink:href="#DejaVuSans-1072"/>
      </g>
     </g>
    </g>
    <g id="xtick_2">
     <g id="line2d_3">
      <path clip-path="url(#pd4687f7ce2)" d="M 171.767524 402.096164 
L 171.767524 10.8 
" style="fill:none;stroke:#b0b0b0;stroke-linecap:square;stroke-width:0.8;"/>
     </g>
     <g id="line2d_4">
      <g>
       <use style="stroke:#000000;stroke-width:0.8;" x="171.767524" xlink:href="#mb47829d119" y="402.096164"/>
      </g>
     </g>
     <g id="text_2">
      <!-- адиабатный процесс -->
      <g transform="translate(70.415895 462.988239)rotate(-25)scale(0.1 -0.1)">
       <defs>
        <path d="M 55.90625 54.6875 
L 55.90625 0 
L 46.96875 0 
L 46.96875 43.890625 
L 20.609375 0 
L 9.078125 0 
L 9.078125 54.6875 
L 18.015625 54.6875 
L 18.015625 10.890625 
L 44.34375 54.6875 
z
" id="DejaVuSans-1080"/>
        <path d="M 31.109375 56 
Q 42.828125 56 49.515625 48.375 
Q 56.203125 40.765625 56.203125 27.296875 
Q 56.203125 13.875 49.515625 6.21875 
Q 42.828125 -1.421875 31.109375 -1.421875 
Q 19.34375 -1.421875 12.84375 6 
Q 6.34375 13.421875 6 27.296875 
L 5.71875 38.484375 
Q 5.46875 44.28125 5.46875 46.296875 
Q 5.46875 54.109375 8.296875 59.859375 
Q 12.75 68.890625 20.4375 72.796875 
Q 28.125 76.703125 41.015625 76.8125 
Q 46.96875 76.859375 49.609375 77.6875 
L 52.09375 70.5625 
Q 49.703125 69.578125 47.515625 69.53125 
L 35.296875 68.703125 
Q 29.15625 68.265625 25.4375 66.109375 
Q 15.71875 60.40625 14.796875 52.9375 
L 14.453125 50.203125 
Q 20.796875 56 31.109375 56 
z
M 31.109375 48.390625 
Q 23.875 48.390625 19.671875 42.75 
Q 15.484375 37.109375 15.484375 27.296875 
Q 15.484375 17.484375 19.65625 11.84375 
Q 23.828125 6.203125 31.109375 6.203125 
Q 38.28125 6.203125 42.484375 11.859375 
Q 46.6875 17.53125 46.6875 27.296875 
Q 46.6875 37.015625 42.484375 42.703125 
Q 38.28125 48.390625 31.109375 48.390625 
z
" id="DejaVuSans-1073"/>
        <path d="M 61.046875 54.6875 
L 70.03125 54.6875 
L 70.03125 0 
L 61.046875 0 
z
M 65.546875 56 
z
M 43.453125 16.21875 
Q 43.453125 20.609375 40.25 22.90625 
Q 37.0625 25.203125 30.90625 25.203125 
L 18.109375 25.203125 
L 18.109375 7.171875 
L 30.90625 7.171875 
Q 37.0625 7.171875 40.25 9.484375 
Q 43.453125 11.8125 43.453125 16.21875 
z
M 9.078125 54.6875 
L 18.109375 54.6875 
L 18.109375 32.375 
L 31.296875 32.375 
Q 41.75 32.375 47.390625 28.390625 
Q 53.03125 24.421875 53.03125 16.21875 
Q 53.03125 8.015625 47.390625 4 
Q 41.75 0 31.296875 0 
L 9.078125 0 
z
" id="DejaVuSans-1099"/>
        <path d="M 55.90625 54.6875 
L 55.90625 0 
L 46.96875 0 
L 46.96875 43.890625 
L 20.609375 0 
L 9.078125 0 
L 9.078125 54.6875 
L 18.015625 54.6875 
L 18.015625 10.890625 
L 44.34375 54.6875 
z
M 17.21875 75.515625 
L 22.984375 75.515625 
Q 23.515625 71.859375 25.875 70.015625 
Q 28.25 68.1875 32.5 68.1875 
Q 36.703125 68.1875 39.046875 70 
Q 41.390625 71.8125 42.015625 75.515625 
L 47.78125 75.515625 
Q 47.296875 68.53125 43.4375 65.015625 
Q 39.578125 61.5 32.5 61.5 
Q 25.421875 61.5 21.5625 65.015625 
Q 17.703125 68.53125 17.21875 75.515625 
z
" id="DejaVuSans-1081"/>
        <path d="M 56.296875 54.6875 
L 56.296875 0 
L 47.265625 0 
L 47.265625 47.515625 
L 18.109375 47.515625 
L 18.109375 0 
L 9.078125 0 
L 9.078125 54.6875 
z
" id="DejaVuSans-1087"/>
        <path d="M 30.609375 48.390625 
Q 23.390625 48.390625 19.1875 42.75 
Q 14.984375 37.109375 14.984375 27.296875 
Q 14.984375 17.484375 19.15625 11.84375 
Q 23.34375 6.203125 30.609375 6.203125 
Q 37.796875 6.203125 41.984375 11.859375 
Q 46.1875 17.53125 46.1875 27.296875 
Q 46.1875 37.015625 41.984375 42.703125 
Q 37.796875 48.390625 30.609375 48.390625 
z
M 30.609375 56 
Q 42.328125 56 49.015625 48.375 
Q 55.71875 40.765625 55.71875 27.296875 
Q 55.71875 13.875 49.015625 6.21875 
Q 42.328125 -1.421875 30.609375 -1.421875 
Q 18.84375 -1.421875 12.171875 6.21875 
Q 5.515625 13.875 5.515625 27.296875 
Q 5.515625 40.765625 12.171875 48.375 
Q 18.84375 56 30.609375 56 
z
" id="DejaVuSans-1086"/>
        <path d="M 56.296875 0 
L 9.078125 0 
L 9.078125 54.6875 
L 18.109375 54.6875 
L 18.109375 7.171875 
L 47.265625 7.171875 
L 47.265625 54.6875 
L 56.296875 54.6875 
L 56.296875 7.171875 
L 63.484375 7.171875 
L 63.484375 -13.8125 
L 56.296875 -13.8125 
z
" id="DejaVuSans-1094"/>
        <path d="M 48.78125 52.59375 
L 48.78125 44.1875 
Q 44.96875 46.296875 41.140625 47.34375 
Q 37.3125 48.390625 33.40625 48.390625 
Q 24.65625 48.390625 19.8125 42.84375 
Q 14.984375 37.3125 14.984375 27.296875 
Q 14.984375 17.28125 19.8125 11.734375 
Q 24.65625 6.203125 33.40625 6.203125 
Q 37.3125 6.203125 41.140625 7.25 
Q 44.96875 8.296875 48.78125 10.40625 
L 48.78125 2.09375 
Q 45.015625 0.34375 40.984375 -0.53125 
Q 36.96875 -1.421875 32.421875 -1.421875 
Q 20.0625 -1.421875 12.78125 6.34375 
Q 5.515625 14.109375 5.515625 27.296875 
Q 5.515625 40.671875 12.859375 48.328125 
Q 20.21875 56 33.015625 56 
Q 37.15625 56 41.109375 55.140625 
Q 45.0625 54.296875 48.78125 52.59375 
z
" id="DejaVuSans-1089"/>
       </defs>
       <use xlink:href="#DejaVuSans-1072"/>
       <use x="61.279297" xlink:href="#DejaVuSans-1076"/>
       <use x="130.419922" xlink:href="#DejaVuSans-1080"/>
       <use x="195.410156" xlink:href="#DejaVuSans-1072"/>
       <use x="256.689453" xlink:href="#DejaVuSans-1073"/>
       <use x="318.359375" xlink:href="#DejaVuSans-1072"/>
       <use x="379.638672" xlink:href="#DejaVuSans-1090"/>
       <use x="437.890625" xlink:href="#DejaVuSans-1085"/>
       <use x="503.271484" xlink:href="#DejaVuSans-1099"/>
       <use x="582.226562" xlink:href="#DejaVuSans-1081"/>
       <use x="647.216797" xlink:href="#DejaVuSans-32"/>
       <use x="679.003906" xlink:href="#DejaVuSans-1087"/>
       <use x="744.384766" xlink:href="#DejaVuSans-1088"/>
       <use x="807.861328" xlink:href="#DejaVuSans-1086"/>
       <use x="869.042969" xlink:href="#DejaVuSans-1094"/>
       <use x="937.109375" xlink:href="#DejaVuSans-1077"/>
       <use x="998.632812" xlink:href="#DejaVuSans-1089"/>
       <use x="1053.613281" xlink:href="#DejaVuSans-1089"/>
      </g>
     </g>
    </g>
    <g id="xtick_3">
     <g id="line2d_5">
      <path clip-path="url(#pd4687f7ce2)" d="M 234.399185 402.096164 
L 234.399185 10.8 
" style="fill:none;stroke:#b0b0b0;stroke-linecap:square;stroke-width:0.8;"/>
     </g>
     <g id="line2d_6">
      <g>
       <use style="stroke:#000000;stroke-width:0.8;" x="234.399185" xlink:href="#mb47829d119" y="402.096164"/>
      </g>
     </g>
     <g id="text_3">
      <!-- аккумуляторный элемент -->
      <g transform="translate(109.814923 473.667438)rotate(-25)scale(0.1 -0.1)">
       <defs>
        <path d="M 9.078125 54.6875 
L 18.015625 54.6875 
L 18.015625 29 
L 43.359375 54.6875 
L 54.390625 54.6875 
L 33.5 33.546875 
L 57.078125 0 
L 47.015625 0 
L 27.640625 27.59375 
L 18.015625 17.828125 
L 18.015625 0 
L 9.078125 0 
z
" id="DejaVuSans-1082"/>
        <path d="M 9.078125 54.6875 
L 22.21875 54.6875 
L 37.75 18.0625 
L 53.328125 54.6875 
L 66.359375 54.6875 
L 66.359375 0 
L 57.328125 0 
L 57.328125 46.09375 
L 42.234375 10.5 
L 33.25 10.5 
L 18.109375 46.09375 
L 18.109375 0 
L 9.078125 0 
z
" id="DejaVuSans-1084"/>
        <path d="M 3.71875 0 
L 3.71875 7.46875 
Q 12.59375 8.84375 15.328125 14.984375 
Q 18.65625 23.640625 18.65625 45.75 
L 18.65625 54.6875 
L 55.609375 54.6875 
L 55.609375 0 
L 46.625 0 
L 46.625 47.515625 
L 27.640625 47.515625 
L 27.640625 42.09375 
Q 27.640625 21 23.34375 11.53125 
Q 18.75 1.421875 3.71875 0 
z
" id="DejaVuSans-1083"/>
        <path d="M 18.453125 38.921875 
Q 18.453125 34.859375 21.578125 32.5625 
Q 24.703125 30.28125 30.515625 30.28125 
L 42.625 30.28125 
L 42.625 47.515625 
L 30.515625 47.515625 
Q 24.703125 47.515625 21.578125 45.265625 
Q 18.453125 43.015625 18.453125 38.921875 
z
M 5.671875 0 
L 22.359375 23.96875 
Q 16.703125 25.25 12.9375 28.59375 
Q 9.1875 31.9375 9.1875 38.921875 
Q 9.1875 46.828125 14.421875 50.75 
Q 19.671875 54.6875 30.28125 54.6875 
L 51.65625 54.6875 
L 51.65625 0 
L 42.625 0 
L 42.625 23.09375 
L 31.453125 23.09375 
L 15.328125 0 
z
" id="DejaVuSans-1103"/>
        <path d="M 5.515625 10.40625 
Q 13.234375 6.203125 20.90625 6.203125 
Q 28.078125 6.203125 33.203125 10.375 
Q 38.328125 14.546875 39.265625 25.203125 
L 11.53125 25.203125 
L 11.53125 32.375 
L 38.96875 32.375 
Q 38.375 37.5 34.484375 42.9375 
Q 30.609375 48.390625 20.90625 48.390625 
Q 13.375 48.390625 5.515625 44.1875 
L 5.515625 52.59375 
Q 13.1875 56 21.296875 56 
Q 34.078125 56 41.421875 48.265625 
Q 48.78125 40.53125 48.78125 27.296875 
Q 48.78125 14.109375 41.625 6.34375 
Q 34.46875 -1.421875 21.921875 -1.421875 
Q 12.703125 -1.421875 5.515625 2.09375 
z
" id="DejaVuSans-1101"/>
       </defs>
       <use xlink:href="#DejaVuSans-1072"/>
       <use x="61.279297" xlink:href="#DejaVuSans-1082"/>
       <use x="121.679688" xlink:href="#DejaVuSans-1082"/>
       <use x="182.080078" xlink:href="#DejaVuSans-1091"/>
       <use x="241.259766" xlink:href="#DejaVuSans-1084"/>
       <use x="316.699219" xlink:href="#DejaVuSans-1091"/>
       <use x="375.878906" xlink:href="#DejaVuSans-1083"/>
       <use x="439.794922" xlink:href="#DejaVuSans-1103"/>
       <use x="499.951172" xlink:href="#DejaVuSans-1090"/>
       <use x="558.203125" xlink:href="#DejaVuSans-1086"/>
       <use x="619.384766" xlink:href="#DejaVuSans-1088"/>
       <use x="682.861328" xlink:href="#DejaVuSans-1085"/>
       <use x="748.242188" xlink:href="#DejaVuSans-1099"/>
       <use x="827.197266" xlink:href="#DejaVuSans-1081"/>
       <use x="892.1875" xlink:href="#DejaVuSans-32"/>
       <use x="923.974609" xlink:href="#DejaVuSans-1101"/>
       <use x="978.857422" xlink:href="#DejaVuSans-1083"/>
       <use x="1042.773438" xlink:href="#DejaVuSans-1077"/>
       <use x="1104.296875" xlink:href="#DejaVuSans-1084"/>
       <use x="1179.736328" xlink:href="#DejaVuSans-1077"/>
       <use x="1241.259766" xlink:href="#DejaVuSans-1085"/>
       <use x="1306.640625" xlink:href="#DejaVuSans-1090"/>
      </g>
     </g>
    </g>
    <g id="xtick_4">
     <g id="line2d_7">
      <path clip-path="url(#pd4687f7ce2)" d="M 297.030846 402.096164 
L 297.030846 10.8 
" style="fill:none;stroke:#b0b0b0;stroke-linecap:square;stroke-width:0.8;"/>
     </g>
     <g id="line2d_8">
      <g>
       <use style="stroke:#000000;stroke-width:0.8;" x="297.030846" xlink:href="#mb47829d119" y="402.096164"/>
      </g>
     </g>
     <g id="text_4">
      <!-- блокировка пуска -->
      <g transform="translate(210.008793 456.306248)rotate(-25)scale(0.1 -0.1)">
       <use xlink:href="#DejaVuSans-1073"/>
       <use x="61.669922" xlink:href="#DejaVuSans-1083"/>
       <use x="125.585938" xlink:href="#DejaVuSans-1086"/>
       <use x="186.767578" xlink:href="#DejaVuSans-1082"/>
       <use x="247.167969" xlink:href="#DejaVuSans-1080"/>
       <use x="312.158203" xlink:href="#DejaVuSans-1088"/>
       <use x="375.634766" xlink:href="#DejaVuSans-1086"/>
       <use x="436.816406" xlink:href="#DejaVuSans-1074"/>
       <use x="495.751953" xlink:href="#DejaVuSans-1082"/>
       <use x="556.152344" xlink:href="#DejaVuSans-1072"/>
       <use x="617.431641" xlink:href="#DejaVuSans-32"/>
       <use x="649.21875" xlink:href="#DejaVuSans-1087"/>
       <use x="714.599609" xlink:href="#DejaVuSans-1091"/>
       <use x="773.779297" xlink:href="#DejaVuSans-1089"/>
       <use x="828.759766" xlink:href="#DejaVuSans-1082"/>
       <use x="889.160156" xlink:href="#DejaVuSans-1072"/>
      </g>
     </g>
    </g>
    <g id="xtick_5">
     <g id="line2d_9">
      <path clip-path="url(#pd4687f7ce2)" d="M 359.662508 402.096164 
L 359.662508 10.8 
" style="fill:none;stroke:#b0b0b0;stroke-linecap:square;stroke-width:0.8;"/>
     </g>
     <g id="line2d_10">
      <g>
       <use style="stroke:#000000;stroke-width:0.8;" x="359.662508" xlink:href="#mb47829d119" y="402.096164"/>
      </g>
     </g>
     <g id="text_5">
      <!-- воздухозаборник -->
      <g transform="translate(275.986713 454.745862)rotate(-25)scale(0.1 -0.1)">
       <defs>
        <path d="M 34.46875 29.5 
Q 40.53125 28.328125 43.890625 24.75 
Q 47.265625 21.1875 47.265625 15.921875 
Q 47.265625 7.46875 40.96875 3.015625 
Q 34.671875 -1.421875 23.046875 -1.421875 
Q 19.140625 -1.421875 15.015625 -0.734375 
Q 10.890625 -0.046875 6.5 1.3125 
L 6.5 9.671875 
Q 9.96875 7.859375 14.109375 6.953125 
Q 18.265625 6.0625 22.796875 6.0625 
Q 30.171875 6.0625 34.296875 8.796875 
Q 38.421875 11.53125 38.421875 15.921875 
Q 38.421875 20.21875 34.765625 22.828125 
Q 31.109375 25.4375 24.421875 25.4375 
L 17.1875 25.4375 
L 17.1875 32.859375 
L 24.75 32.859375 
Q 30.421875 32.859375 33.71875 35.03125 
Q 37.015625 37.203125 37.015625 40.625 
Q 37.015625 43.75 33.609375 46 
Q 30.21875 48.25 24.421875 48.25 
Q 20.953125 48.25 17.015625 47.609375 
Q 13.09375 46.96875 8.34375 45.5625 
L 8.34375 53.71875 
Q 13.140625 54.890625 17.28125 55.46875 
Q 21.4375 56.0625 25.140625 56.0625 
Q 34.71875 56.0625 40.25 52.21875 
Q 45.796875 48.390625 45.796875 41.5 
Q 45.796875 36.96875 42.859375 33.8125 
Q 39.9375 30.671875 34.46875 29.5 
z
" id="DejaVuSans-1079"/>
        <path d="M 54.890625 54.6875 
L 35.109375 28.078125 
L 55.90625 0 
L 45.3125 0 
L 29.390625 21.484375 
L 13.484375 0 
L 2.875 0 
L 24.125 28.609375 
L 4.6875 54.6875 
L 15.28125 54.6875 
L 29.78125 35.203125 
L 44.28125 54.6875 
z
" id="DejaVuSans-1093"/>
       </defs>
       <use xlink:href="#DejaVuSans-1074"/>
       <use x="58.935547" xlink:href="#DejaVuSans-1086"/>
       <use x="120.117188" xlink:href="#DejaVuSans-1079"/>
       <use x="173.291016" xlink:href="#DejaVuSans-1076"/>
       <use x="242.431641" xlink:href="#DejaVuSans-1091"/>
       <use x="301.611328" xlink:href="#DejaVuSans-1093"/>
       <use x="360.791016" xlink:href="#DejaVuSans-1086"/>
       <use x="421.972656" xlink:href="#DejaVuSans-1079"/>
       <use x="475.146484" xlink:href="#DejaVuSans-1072"/>
       <use x="536.425781" xlink:href="#DejaVuSans-1073"/>
       <use x="598.095703" xlink:href="#DejaVuSans-1086"/>
       <use x="659.277344" xlink:href="#DejaVuSans-1088"/>
       <use x="722.753906" xlink:href="#DejaVuSans-1085"/>
       <use x="788.134766" xlink:href="#DejaVuSans-1080"/>
       <use x="853.125" xlink:href="#DejaVuSans-1082"/>
      </g>
     </g>
    </g>
    <g id="xtick_6">
     <g id="line2d_11">
      <path clip-path="url(#pd4687f7ce2)" d="M 422.294169 402.096164 
L 422.294169 10.8 
" style="fill:none;stroke:#b0b0b0;stroke-linecap:square;stroke-width:0.8;"/>
     </g>
     <g id="line2d_12">
      <g>
       <use style="stroke:#000000;stroke-width:0.8;" x="422.294169" xlink:href="#mb47829d119" y="402.096164"/>
      </g>
     </g>
     <g id="text_6">
      <!-- впускное отверстие -->
      <g transform="translate(325.173865 460.860784)rotate(-25)scale(0.1 -0.1)">
       <use xlink:href="#DejaVuSans-1074"/>
       <use x="58.935547" xlink:href="#DejaVuSans-1087"/>
       <use x="124.316406" xlink:href="#DejaVuSans-1091"/>
       <use x="183.496094" xlink:href="#DejaVuSans-1089"/>
       <use x="238.476562" xlink:href="#DejaVuSans-1082"/>
       <use x="298.876953" xlink:href="#DejaVuSans-1085"/>
       <use x="364.257812" xlink:href="#DejaVuSans-1086"/>
       <use x="425.439453" xlink:href="#DejaVuSans-1077"/>
       <use x="486.962891" xlink:href="#DejaVuSans-32"/>
       <use x="518.75" xlink:href="#DejaVuSans-1086"/>
       <use x="579.931641" xlink:href="#DejaVuSans-1090"/>
       <use x="638.183594" xlink:href="#DejaVuSans-1074"/>
       <use x="697.119141" xlink:href="#DejaVuSans-1077"/>
       <use x="758.642578" xlink:href="#DejaVuSans-1088"/>
       <use x="822.119141" xlink:href="#DejaVuSans-1089"/>
       <use x="877.099609" xlink:href="#DejaVuSans-1090"/>
       <use x="935.351562" xlink:href="#DejaVuSans-1080"/>
       <use x="1000.341797" xlink:href="#DejaVuSans-1077"/>
      </g>
     </g>
    </g>
    <g id="xtick_7">
     <g id="line2d_13">
      <path clip-path="url(#pd4687f7ce2)" d="M 484.925831 402.096164 
L 484.925831 10.8 
" style="fill:none;stroke:#b0b0b0;stroke-linecap:square;stroke-width:0.8;"/>
     </g>
     <g id="line2d_14">
      <g>
       <use style="stroke:#000000;stroke-width:0.8;" x="484.925831" xlink:href="#mb47829d119" y="402.096164"/>
      </g>
     </g>
     <g id="text_7">
      <!-- выпускной коллектор -->
      <g transform="translate(379.325884 464.814907)rotate(-25)scale(0.1 -0.1)">
       <use xlink:href="#DejaVuSans-1074"/>
       <use x="58.935547" xlink:href="#DejaVuSans-1099"/>
       <use x="137.890625" xlink:href="#DejaVuSans-1087"/>
       <use x="203.271484" xlink:href="#DejaVuSans-1091"/>
       <use x="262.451172" xlink:href="#DejaVuSans-1089"/>
       <use x="317.431641" xlink:href="#DejaVuSans-1082"/>
       <use x="377.832031" xlink:href="#DejaVuSans-1085"/>
       <use x="443.212891" xlink:href="#DejaVuSans-1086"/>
       <use x="504.394531" xlink:href="#DejaVuSans-1081"/>
       <use x="569.384766" xlink:href="#DejaVuSans-32"/>
       <use x="601.171875" xlink:href="#DejaVuSans-1082"/>
       <use x="661.572266" xlink:href="#DejaVuSans-1086"/>
       <use x="722.753906" xlink:href="#DejaVuSans-1083"/>
       <use x="786.669922" xlink:href="#DejaVuSans-1083"/>
       <use x="850.585938" xlink:href="#DejaVuSans-1077"/>
       <use x="912.109375" xlink:href="#DejaVuSans-1082"/>
       <use x="972.509766" xlink:href="#DejaVuSans-1090"/>
       <use x="1030.761719" xlink:href="#DejaVuSans-1086"/>
       <use x="1091.943359" xlink:href="#DejaVuSans-1088"/>
      </g>
     </g>
    </g>
    <g id="xtick_8">
     <g id="line2d_15">
      <path clip-path="url(#pd4687f7ce2)" d="M 547.557492 402.096164 
L 547.557492 10.8 
" style="fill:none;stroke:#b0b0b0;stroke-linecap:square;stroke-width:0.8;"/>
     </g>
     <g id="line2d_16">
      <g>
       <use style="stroke:#000000;stroke-width:0.8;" x="547.557492" xlink:href="#mb47829d119" y="402.096164"/>
      </g>
     </g>
     <g id="text_8">
      <!-- гистерезис регyлятора -->
      <g transform="translate(435.450539 467.849174)rotate(-25)scale(0.1 -0.1)">
       <defs>
        <path d="M 32.171875 -5.078125 
Q 28.375 -14.84375 24.75 -17.8125 
Q 21.140625 -20.796875 15.09375 -20.796875 
L 7.90625 -20.796875 
L 7.90625 -13.28125 
L 13.1875 -13.28125 
Q 16.890625 -13.28125 18.9375 -11.515625 
Q 21 -9.765625 23.484375 -3.21875 
L 25.09375 0.875 
L 2.984375 54.6875 
L 12.5 54.6875 
L 29.59375 11.921875 
L 46.6875 54.6875 
L 56.203125 54.6875 
z
" id="DejaVuSans-121"/>
       </defs>
       <use xlink:href="#DejaVuSans-1075"/>
       <use x="52.539062" xlink:href="#DejaVuSans-1080"/>
       <use x="117.529297" xlink:href="#DejaVuSans-1089"/>
       <use x="172.509766" xlink:href="#DejaVuSans-1090"/>
       <use x="230.761719" xlink:href="#DejaVuSans-1077"/>
       <use x="292.285156" xlink:href="#DejaVuSans-1088"/>
       <use x="355.761719" xlink:href="#DejaVuSans-1077"/>
       <use x="417.285156" xlink:href="#DejaVuSans-1079"/>
       <use x="470.458984" xlink:href="#DejaVuSans-1080"/>
       <use x="535.449219" xlink:href="#DejaVuSans-1089"/>
       <use x="590.429688" xlink:href="#DejaVuSans-32"/>
       <use x="622.216797" xlink:href="#DejaVuSans-1088"/>
       <use x="685.693359" xlink:href="#DejaVuSans-1077"/>
       <use x="747.216797" xlink:href="#DejaVuSans-1075"/>
       <use x="799.755859" xlink:href="#DejaVuSans-121"/>
       <use x="858.935547" xlink:href="#DejaVuSans-1083"/>
       <use x="922.851562" xlink:href="#DejaVuSans-1103"/>
       <use x="983.007812" xlink:href="#DejaVuSans-1090"/>
       <use x="1041.259766" xlink:href="#DejaVuSans-1086"/>
       <use x="1102.441406" xlink:href="#DejaVuSans-1088"/>
       <use x="1165.917969" xlink:href="#DejaVuSans-1072"/>
      </g>
     </g>
    </g>
    <g id="xtick_9">
     <g id="line2d_17">
      <path clip-path="url(#pd4687f7ce2)" d="M 610.189154 402.096164 
L 610.189154 10.8 
" style="fill:none;stroke:#b0b0b0;stroke-linecap:square;stroke-width:0.8;"/>
     </g>
     <g id="line2d_18">
      <g>
       <use style="stroke:#000000;stroke-width:0.8;" x="610.189154" xlink:href="#mb47829d119" y="402.096164"/>
      </g>
     </g>
     <g id="text_9">
      <!-- глушитель шума -->
      <g transform="translate(528.289156 453.763439)rotate(-25)scale(0.1 -0.1)">
       <defs>
        <path d="M 50.25 7.171875 
L 73.390625 7.171875 
L 73.390625 54.6875 
L 82.421875 54.6875 
L 82.421875 0 
L 9.078125 0 
L 9.078125 54.6875 
L 18.109375 54.6875 
L 18.109375 7.171875 
L 41.21875 7.171875 
L 41.21875 54.6875 
L 50.25 54.6875 
z
" id="DejaVuSans-1096"/>
        <path d="M 43.453125 16.21875 
Q 43.453125 20.609375 40.25 22.90625 
Q 37.0625 25.203125 30.90625 25.203125 
L 18.109375 25.203125 
L 18.109375 7.171875 
L 30.90625 7.171875 
Q 37.0625 7.171875 40.25 9.484375 
Q 43.453125 11.8125 43.453125 16.21875 
z
M 9.078125 54.6875 
L 18.109375 54.6875 
L 18.109375 32.375 
L 31.296875 32.375 
Q 41.75 32.375 47.390625 28.390625 
Q 53.03125 24.421875 53.03125 16.21875 
Q 53.03125 8.015625 47.390625 4 
Q 41.75 0 31.296875 0 
L 9.078125 0 
z
" id="DejaVuSans-1100"/>
       </defs>
       <use xlink:href="#DejaVuSans-1075"/>
       <use x="52.539062" xlink:href="#DejaVuSans-1083"/>
       <use x="116.455078" xlink:href="#DejaVuSans-1091"/>
       <use x="175.634766" xlink:href="#DejaVuSans-1096"/>
       <use x="267.138672" xlink:href="#DejaVuSans-1080"/>
       <use x="332.128906" xlink:href="#DejaVuSans-1090"/>
       <use x="390.380859" xlink:href="#DejaVuSans-1077"/>
       <use x="451.904297" xlink:href="#DejaVuSans-1083"/>
       <use x="515.820312" xlink:href="#DejaVuSans-1100"/>
       <use x="574.755859" xlink:href="#DejaVuSans-32"/>
       <use x="606.542969" xlink:href="#DejaVuSans-1096"/>
       <use x="698.046875" xlink:href="#DejaVuSans-1091"/>
       <use x="757.226562" xlink:href="#DejaVuSans-1084"/>
       <use x="832.666016" xlink:href="#DejaVuSans-1072"/>
      </g>
     </g>
    </g>
    <g id="xtick_10">
     <g id="line2d_19">
      <path clip-path="url(#pd4687f7ce2)" d="M 672.820815 402.096164 
L 672.820815 10.8 
" style="fill:none;stroke:#b0b0b0;stroke-linecap:square;stroke-width:0.8;"/>
     </g>
     <g id="line2d_20">
      <g>
       <use style="stroke:#000000;stroke-width:0.8;" x="672.820815" xlink:href="#mb47829d119" y="402.096164"/>
      </g>
     </g>
     <g id="text_10">
      <!-- двигатель внутреннего сгорания -->
      <g transform="translate(511.536752 490.780837)rotate(-25)scale(0.1 -0.1)">
       <use xlink:href="#DejaVuSans-1076"/>
       <use x="69.140625" xlink:href="#DejaVuSans-1074"/>
       <use x="128.076172" xlink:href="#DejaVuSans-1080"/>
       <use x="193.066406" xlink:href="#DejaVuSans-1075"/>
       <use x="245.605469" xlink:href="#DejaVuSans-1072"/>
       <use x="306.884766" xlink:href="#DejaVuSans-1090"/>
       <use x="365.136719" xlink:href="#DejaVuSans-1077"/>
       <use x="426.660156" xlink:href="#DejaVuSans-1083"/>
       <use x="490.576172" xlink:href="#DejaVuSans-1100"/>
       <use x="549.511719" xlink:href="#DejaVuSans-32"/>
       <use x="581.298828" xlink:href="#DejaVuSans-1074"/>
       <use x="640.234375" xlink:href="#DejaVuSans-1085"/>
       <use x="705.615234" xlink:href="#DejaVuSans-1091"/>
       <use x="764.794922" xlink:href="#DejaVuSans-1090"/>
       <use x="823.046875" xlink:href="#DejaVuSans-1088"/>
       <use x="886.523438" xlink:href="#DejaVuSans-1077"/>
       <use x="948.046875" xlink:href="#DejaVuSans-1085"/>
       <use x="1013.427734" xlink:href="#DejaVuSans-1085"/>
       <use x="1078.808594" xlink:href="#DejaVuSans-1077"/>
       <use x="1140.332031" xlink:href="#DejaVuSans-1075"/>
       <use x="1192.871094" xlink:href="#DejaVuSans-1086"/>
       <use x="1254.052734" xlink:href="#DejaVuSans-32"/>
       <use x="1285.839844" xlink:href="#DejaVuSans-1089"/>
       <use x="1340.820312" xlink:href="#DejaVuSans-1075"/>
       <use x="1393.359375" xlink:href="#DejaVuSans-1086"/>
       <use x="1454.541016" xlink:href="#DejaVuSans-1088"/>
       <use x="1518.017578" xlink:href="#DejaVuSans-1072"/>
       <use x="1579.296875" xlink:href="#DejaVuSans-1085"/>
       <use x="1644.677734" xlink:href="#DejaVuSans-1080"/>
       <use x="1709.667969" xlink:href="#DejaVuSans-1103"/>
      </g>
     </g>
    </g>
    <g id="xtick_11">
     <g id="line2d_21">
      <path clip-path="url(#pd4687f7ce2)" d="M 735.452476 402.096164 
L 735.452476 10.8 
" style="fill:none;stroke:#b0b0b0;stroke-linecap:square;stroke-width:0.8;"/>
     </g>
     <g id="line2d_22">
      <g>
       <use style="stroke:#000000;stroke-width:0.8;" x="735.452476" xlink:href="#mb47829d119" y="402.096164"/>
      </g>
     </g>
     <g id="text_11">
      <!-- двухтактный двигатель -->
      <g transform="translate(618.995246 469.877741)rotate(-25)scale(0.1 -0.1)">
       <use xlink:href="#DejaVuSans-1076"/>
       <use x="69.140625" xlink:href="#DejaVuSans-1074"/>
       <use x="128.076172" xlink:href="#DejaVuSans-1091"/>
       <use x="187.255859" xlink:href="#DejaVuSans-1093"/>
       <use x="246.435547" xlink:href="#DejaVuSans-1090"/>
       <use x="304.6875" xlink:href="#DejaVuSans-1072"/>
       <use x="365.966797" xlink:href="#DejaVuSans-1082"/>
       <use x="426.367188" xlink:href="#DejaVuSans-1090"/>
       <use x="484.619141" xlink:href="#DejaVuSans-1085"/>
       <use x="550" xlink:href="#DejaVuSans-1099"/>
       <use x="628.955078" xlink:href="#DejaVuSans-1081"/>
       <use x="693.945312" xlink:href="#DejaVuSans-32"/>
       <use x="725.732422" xlink:href="#DejaVuSans-1076"/>
       <use x="794.873047" xlink:href="#DejaVuSans-1074"/>
       <use x="853.808594" xlink:href="#DejaVuSans-1080"/>
       <use x="918.798828" xlink:href="#DejaVuSans-1075"/>
       <use x="971.337891" xlink:href="#DejaVuSans-1072"/>
       <use x="1032.617188" xlink:href="#DejaVuSans-1090"/>
       <use x="1090.869141" xlink:href="#DejaVuSans-1077"/>
       <use x="1152.392578" xlink:href="#DejaVuSans-1083"/>
       <use x="1216.308594" xlink:href="#DejaVuSans-1100"/>
      </g>
     </g>
    </g>
    <g id="xtick_12">
     <g id="line2d_23">
      <path clip-path="url(#pd4687f7ce2)" d="M 798.084138 402.096164 
L 798.084138 10.8 
" style="fill:none;stroke:#b0b0b0;stroke-linecap:square;stroke-width:0.8;"/>
     </g>
     <g id="line2d_24">
      <g>
       <use style="stroke:#000000;stroke-width:0.8;" x="798.084138" xlink:href="#mb47829d119" y="402.096164"/>
      </g>
     </g>
     <g id="text_12">
      <!-- дефлектор -->
      <g transform="translate(744.190467 440.703874)rotate(-25)scale(0.1 -0.1)">
       <defs>
        <path d="M 14.796875 27.296875 
Q 14.796875 15.828125 18.328125 10.96875 
Q 21.875 6.109375 27.875 6.109375 
Q 32.671875 6.109375 38.234375 14.3125 
L 38.234375 40.28125 
Q 32.671875 48.484375 27.875 48.484375 
Q 21.875 48.484375 18.328125 43.625 
Q 14.796875 38.765625 14.796875 27.296875 
z
M 38.234375 -20.796875 
L 38.234375 6.984375 
Q 35.453125 2.390625 32.25 0.484375 
Q 29.046875 -1.421875 25 -1.421875 
Q 16.84375 -1.421875 11.15625 6.125 
Q 5.46875 13.671875 5.46875 27.09375 
Q 5.46875 40.53125 11.15625 48.265625 
Q 16.84375 56 25 56 
Q 29.046875 56 32.25 54.140625 
Q 35.453125 52.296875 38.234375 47.703125 
L 38.234375 72.90625 
L 47.265625 72.90625 
L 47.265625 47.703125 
Q 50.046875 52.296875 53.25 54.140625 
Q 56.453125 56 60.5 56 
Q 68.65625 56 74.34375 48.265625 
Q 80.03125 40.53125 80.03125 27.09375 
Q 80.03125 13.671875 74.34375 6.125 
Q 68.65625 -1.421875 60.5 -1.421875 
Q 56.453125 -1.421875 53.25 0.484375 
Q 50.046875 2.390625 47.265625 6.984375 
L 47.265625 -20.796875 
z
M 70.703125 27.296875 
Q 70.703125 38.765625 67.15625 43.625 
Q 63.625 48.484375 57.625 48.484375 
Q 52.828125 48.484375 47.265625 40.28125 
L 47.265625 14.3125 
Q 52.828125 6.109375 57.625 6.109375 
Q 63.625 6.109375 67.15625 10.96875 
Q 70.703125 15.828125 70.703125 27.296875 
z
" id="DejaVuSans-1092"/>
       </defs>
       <use xlink:href="#DejaVuSans-1076"/>
       <use x="69.140625" xlink:href="#DejaVuSans-1077"/>
       <use x="130.664062" xlink:href="#DejaVuSans-1092"/>
       <use x="216.162109" xlink:href="#DejaVuSans-1083"/>
       <use x="280.078125" xlink:href="#DejaVuSans-1077"/>
       <use x="341.601562" xlink:href="#DejaVuSans-1082"/>
       <use x="402.001953" xlink:href="#DejaVuSans-1090"/>
       <use x="460.253906" xlink:href="#DejaVuSans-1086"/>
       <use x="521.435547" xlink:href="#DejaVuSans-1088"/>
      </g>
     </g>
    </g>
   </g>
   <g id="matplotlib.axis_2">
    <g id="ytick_1">
     <g id="line2d_25">
      <path clip-path="url(#pd4687f7ce2)" d="M 54.02 402.096164 
L 853.2 402.096164 
" style="fill:none;stroke:#b0b0b0;stroke-linecap:square;stroke-width:0.8;"/>
     </g>
     <g id="line2d_26">
      <defs>
       <path d="M 0 0 
L -3.5 0 
" id="mee47ee76f2" style="stroke:#000000;stroke-width:0.8;"/>
      </defs>
      <g>
       <use style="stroke:#000000;stroke-width:0.8;" x="54.02" xlink:href="#mee47ee76f2" y="402.096164"/>
      </g>
     </g>
     <g id="text_13">
      <!-- 0.00 -->
      <g transform="translate(24.754375 405.895383)scale(0.1 -0.1)">
       <defs>
        <path d="M 31.78125 66.40625 
Q 24.171875 66.40625 20.328125 58.90625 
Q 16.5 51.421875 16.5 36.375 
Q 16.5 21.390625 20.328125 13.890625 
Q 24.171875 6.390625 31.78125 6.390625 
Q 39.453125 6.390625 43.28125 13.890625 
Q 47.125 21.390625 47.125 36.375 
Q 47.125 51.421875 43.28125 58.90625 
Q 39.453125 66.40625 31.78125 66.40625 
z
M 31.78125 74.21875 
Q 44.046875 74.21875 50.515625 64.515625 
Q 56.984375 54.828125 56.984375 36.375 
Q 56.984375 17.96875 50.515625 8.265625 
Q 44.046875 -1.421875 31.78125 -1.421875 
Q 19.53125 -1.421875 13.0625 8.265625 
Q 6.59375 17.96875 6.59375 36.375 
Q 6.59375 54.828125 13.0625 64.515625 
Q 19.53125 74.21875 31.78125 74.21875 
z
" id="DejaVuSans-48"/>
        <path d="M 10.6875 12.40625 
L 21 12.40625 
L 21 0 
L 10.6875 0 
z
" id="DejaVuSans-46"/>
       </defs>
       <use xlink:href="#DejaVuSans-48"/>
       <use x="63.623047" xlink:href="#DejaVuSans-46"/>
       <use x="95.410156" xlink:href="#DejaVuSans-48"/>
       <use x="159.033203" xlink:href="#DejaVuSans-48"/>
      </g>
     </g>
    </g>
    <g id="ytick_2">
     <g id="line2d_27">
      <path clip-path="url(#pd4687f7ce2)" d="M 54.02 331.947832 
L 853.2 331.947832 
" style="fill:none;stroke:#b0b0b0;stroke-linecap:square;stroke-width:0.8;"/>
     </g>
     <g id="line2d_28">
      <g>
       <use style="stroke:#000000;stroke-width:0.8;" x="54.02" xlink:href="#mee47ee76f2" y="331.947832"/>
      </g>
     </g>
     <g id="text_14">
      <!-- 0.05 -->
      <g transform="translate(24.754375 335.747051)scale(0.1 -0.1)">
       <defs>
        <path d="M 10.796875 72.90625 
L 49.515625 72.90625 
L 49.515625 64.59375 
L 19.828125 64.59375 
L 19.828125 46.734375 
Q 21.96875 47.46875 24.109375 47.828125 
Q 26.265625 48.1875 28.421875 48.1875 
Q 40.625 48.1875 47.75 41.5 
Q 54.890625 34.8125 54.890625 23.390625 
Q 54.890625 11.625 47.5625 5.09375 
Q 40.234375 -1.421875 26.90625 -1.421875 
Q 22.3125 -1.421875 17.546875 -0.640625 
Q 12.796875 0.140625 7.71875 1.703125 
L 7.71875 11.625 
Q 12.109375 9.234375 16.796875 8.0625 
Q 21.484375 6.890625 26.703125 6.890625 
Q 35.15625 6.890625 40.078125 11.328125 
Q 45.015625 15.765625 45.015625 23.390625 
Q 45.015625 31 40.078125 35.4375 
Q 35.15625 39.890625 26.703125 39.890625 
Q 22.75 39.890625 18.8125 39.015625 
Q 14.890625 38.140625 10.796875 36.28125 
z
" id="DejaVuSans-53"/>
       </defs>
       <use xlink:href="#DejaVuSans-48"/>
       <use x="63.623047" xlink:href="#DejaVuSans-46"/>
       <use x="95.410156" xlink:href="#DejaVuSans-48"/>
       <use x="159.033203" xlink:href="#DejaVuSans-53"/>
      </g>
     </g>
    </g>
    <g id="ytick_3">
     <g id="line2d_29">
      <path clip-path="url(#pd4687f7ce2)" d="M 54.02 261.7995 
L 853.2 261.7995 
" style="fill:none;stroke:#b0b0b0;stroke-linecap:square;stroke-width:0.8;"/>
     </g>
     <g id="line2d_30">
      <g>
       <use style="stroke:#000000;stroke-width:0.8;" x="54.02" xlink:href="#mee47ee76f2" y="261.7995"/>
      </g>
     </g>
     <g id="text_15">
      <!-- 0.10 -->
      <g transform="translate(24.754375 265.598719)scale(0.1 -0.1)">
       <defs>
        <path d="M 12.40625 8.296875 
L 28.515625 8.296875 
L 28.515625 63.921875 
L 10.984375 60.40625 
L 10.984375 69.390625 
L 28.421875 72.90625 
L 38.28125 72.90625 
L 38.28125 8.296875 
L 54.390625 8.296875 
L 54.390625 0 
L 12.40625 0 
z
" id="DejaVuSans-49"/>
       </defs>
       <use xlink:href="#DejaVuSans-48"/>
       <use x="63.623047" xlink:href="#DejaVuSans-46"/>
       <use x="95.410156" xlink:href="#DejaVuSans-49"/>
       <use x="159.033203" xlink:href="#DejaVuSans-48"/>
      </g>
     </g>
    </g>
    <g id="ytick_4">
     <g id="line2d_31">
      <path clip-path="url(#pd4687f7ce2)" d="M 54.02 191.651168 
L 853.2 191.651168 
" style="fill:none;stroke:#b0b0b0;stroke-linecap:square;stroke-width:0.8;"/>
     </g>
     <g id="line2d_32">
      <g>
       <use style="stroke:#000000;stroke-width:0.8;" x="54.02" xlink:href="#mee47ee76f2" y="191.651168"/>
      </g>
     </g>
     <g id="text_16">
      <!-- 0.15 -->
      <g transform="translate(24.754375 195.450387)scale(0.1 -0.1)">
       <use xlink:href="#DejaVuSans-48"/>
       <use x="63.623047" xlink:href="#DejaVuSans-46"/>
       <use x="95.410156" xlink:href="#DejaVuSans-49"/>
       <use x="159.033203" xlink:href="#DejaVuSans-53"/>
      </g>
     </g>
    </g>
    <g id="ytick_5">
     <g id="line2d_33">
      <path clip-path="url(#pd4687f7ce2)" d="M 54.02 121.502836 
L 853.2 121.502836 
" style="fill:none;stroke:#b0b0b0;stroke-linecap:square;stroke-width:0.8;"/>
     </g>
     <g id="line2d_34">
      <g>
       <use style="stroke:#000000;stroke-width:0.8;" x="54.02" xlink:href="#mee47ee76f2" y="121.502836"/>
      </g>
     </g>
     <g id="text_17">
      <!-- 0.20 -->
      <g transform="translate(24.754375 125.302055)scale(0.1 -0.1)">
       <defs>
        <path d="M 19.1875 8.296875 
L 53.609375 8.296875 
L 53.609375 0 
L 7.328125 0 
L 7.328125 8.296875 
Q 12.9375 14.109375 22.625 23.890625 
Q 32.328125 33.6875 34.8125 36.53125 
Q 39.546875 41.84375 41.421875 45.53125 
Q 43.3125 49.21875 43.3125 52.78125 
Q 43.3125 58.59375 39.234375 62.25 
Q 35.15625 65.921875 28.609375 65.921875 
Q 23.96875 65.921875 18.8125 64.3125 
Q 13.671875 62.703125 7.8125 59.421875 
L 7.8125 69.390625 
Q 13.765625 71.78125 18.9375 73 
Q 24.125 74.21875 28.421875 74.21875 
Q 39.75 74.21875 46.484375 68.546875 
Q 53.21875 62.890625 53.21875 53.421875 
Q 53.21875 48.921875 51.53125 44.890625 
Q 49.859375 40.875 45.40625 35.40625 
Q 44.1875 33.984375 37.640625 27.21875 
Q 31.109375 20.453125 19.1875 8.296875 
z
" id="DejaVuSans-50"/>
       </defs>
       <use xlink:href="#DejaVuSans-48"/>
       <use x="63.623047" xlink:href="#DejaVuSans-46"/>
       <use x="95.410156" xlink:href="#DejaVuSans-50"/>
       <use x="159.033203" xlink:href="#DejaVuSans-48"/>
      </g>
     </g>
    </g>
    <g id="ytick_6">
     <g id="line2d_35">
      <path clip-path="url(#pd4687f7ce2)" d="M 54.02 51.354504 
L 853.2 51.354504 
" style="fill:none;stroke:#b0b0b0;stroke-linecap:square;stroke-width:0.8;"/>
     </g>
     <g id="line2d_36">
      <g>
       <use style="stroke:#000000;stroke-width:0.8;" x="54.02" xlink:href="#mee47ee76f2" y="51.354504"/>
      </g>
     </g>
     <g id="text_18">
      <!-- 0.25 -->
      <g transform="translate(24.754375 55.153723)scale(0.1 -0.1)">
       <use xlink:href="#DejaVuSans-48"/>
       <use x="63.623047" xlink:href="#DejaVuSans-46"/>
       <use x="95.410156" xlink:href="#DejaVuSans-50"/>
       <use x="159.033203" xlink:href="#DejaVuSans-53"/>
      </g>
     </g>
    </g>
    <g id="text_19">
     <!-- Время, с -->
     <g transform="translate(18.674687 228.836363)rotate(-90)scale(0.1 -0.1)">
      <defs>
       <path d="M 19.671875 34.8125 
L 19.671875 8.109375 
L 35.5 8.109375 
Q 43.453125 8.109375 47.28125 11.40625 
Q 51.125 14.703125 51.125 21.484375 
Q 51.125 28.328125 47.28125 31.5625 
Q 43.453125 34.8125 35.5 34.8125 
z
M 19.671875 64.796875 
L 19.671875 42.828125 
L 34.28125 42.828125 
Q 41.5 42.828125 45.03125 45.53125 
Q 48.578125 48.25 48.578125 53.8125 
Q 48.578125 59.328125 45.03125 62.0625 
Q 41.5 64.796875 34.28125 64.796875 
z
M 9.8125 72.90625 
L 35.015625 72.90625 
Q 46.296875 72.90625 52.390625 68.21875 
Q 58.5 63.53125 58.5 54.890625 
Q 58.5 48.1875 55.375 44.234375 
Q 52.25 40.28125 46.1875 39.3125 
Q 53.46875 37.75 57.5 32.78125 
Q 61.53125 27.828125 61.53125 20.40625 
Q 61.53125 10.640625 54.890625 5.3125 
Q 48.25 0 35.984375 0 
L 9.8125 0 
z
" id="DejaVuSans-1042"/>
       <path d="M 11.71875 12.40625 
L 22.015625 12.40625 
L 22.015625 4 
L 14.015625 -11.625 
L 7.71875 -11.625 
L 11.71875 4 
z
" id="DejaVuSans-44"/>
      </defs>
      <use xlink:href="#DejaVuSans-1042"/>
      <use x="68.603516" xlink:href="#DejaVuSans-1088"/>
      <use x="132.080078" xlink:href="#DejaVuSans-1077"/>
      <use x="193.603516" xlink:href="#DejaVuSans-1084"/>
      <use x="269.042969" xlink:href="#DejaVuSans-1103"/>
      <use x="329.199219" xlink:href="#DejaVuSans-44"/>
      <use x="360.986328" xlink:href="#DejaVuSans-32"/>
      <use x="392.773438" xlink:href="#DejaVuSans-1089"/>
     </g>
    </g>
   </g>
   <g id="patch_27">
    <path d="M 54.02 402.096164 
L 54.02 10.8 
" style="fill:none;stroke:#000000;stroke-linecap:square;stroke-linejoin:miter;stroke-width:0.8;"/>
   </g>
   <g id="patch_28">
    <path d="M 853.2 402.096164 
L 853.2 10.8 
" style="fill:none;stroke:#000000;stroke-linecap:square;stroke-linejoin:miter;stroke-width:0.8;"/>
   </g>
   <g id="patch_29">
    <path d="M 54.02 402.096164 
L 853.2 402.096164 
" style="fill:none;stroke:#000000;stroke-linecap:square;stroke-linejoin:miter;stroke-width:0.8;"/>
   </g>
   <g id="patch_30">
    <path d="M 54.02 10.8 
L 853.2 10.8 
" style="fill:none;stroke:#000000;stroke-linecap:square;stroke-linejoin:miter;stroke-width:0.8;"/>
   </g>
   <g id="legend_1">
    <g id="patch_31">
     <path d="M 732.25625 48.15625 
L 846.2 48.15625 
Q 848.2 48.15625 848.2 46.15625 
L 848.2 17.8 
Q 848.2 15.8 846.2 15.8 
L 732.25625 15.8 
Q 730.25625 15.8 730.25625 17.8 
L 730.25625 46.15625 
Q 730.25625 48.15625 732.25625 48.15625 
z
" style="fill:#ffffff;opacity:0.8;stroke:#cccccc;stroke-linejoin:miter;"/>
    </g>
    <g id="patch_32">
     <path d="M 734.25625 27.398438 
L 754.25625 27.398438 
L 754.25625 20.398438 
L 734.25625 20.398438 
z
" style="fill:#1f77b4;"/>
    </g>
    <g id="text_20">
     <!-- Частичная сеть -->
     <g transform="translate(762.25625 27.398438)scale(0.1 -0.1)">
      <defs>
       <path d="M 48.828125 0 
L 48.828125 29.890625 
L 28.46875 29.890625 
Q 19.390625 29.890625 13.96875 35.578125 
Q 8.546875 41.265625 8.546875 52.875 
L 8.546875 72.90625 
L 18.359375 72.90625 
L 18.359375 53.65625 
Q 18.359375 45.90625 21.390625 42.046875 
Q 24.421875 38.1875 30.46875 38.1875 
L 48.828125 38.1875 
L 48.828125 72.90625 
L 58.734375 72.90625 
L 58.734375 0 
z
" id="DejaVuSans-1063"/>
       <path d="M 41.015625 0 
L 41.015625 23 
L 24.265625 23 
Q 16.796875 23 11.8125 27.640625 
Q 7.328125 31.84375 7.328125 40.828125 
L 7.328125 54.6875 
L 16.3125 54.6875 
L 16.3125 41.65625 
Q 16.3125 35.9375 18.84375 33.0625 
Q 21.4375 30.171875 26.515625 30.171875 
L 41.015625 30.171875 
L 41.015625 54.6875 
L 50 54.6875 
L 50 0 
z
" id="DejaVuSans-1095"/>
      </defs>
      <use xlink:href="#DejaVuSans-1063"/>
      <use x="68.554688" xlink:href="#DejaVuSans-1072"/>
      <use x="129.833984" xlink:href="#DejaVuSans-1089"/>
      <use x="184.814453" xlink:href="#DejaVuSans-1090"/>
      <use x="243.066406" xlink:href="#DejaVuSans-1080"/>
      <use x="308.056641" xlink:href="#DejaVuSans-1095"/>
      <use x="367.138672" xlink:href="#DejaVuSans-1085"/>
      <use x="432.519531" xlink:href="#DejaVuSans-1072"/>
      <use x="493.798828" xlink:href="#DejaVuSans-1103"/>
      <use x="553.955078" xlink:href="#DejaVuSans-32"/>
      <use x="585.742188" xlink:href="#DejaVuSans-1089"/>
      <use x="640.722656" xlink:href="#DejaVuSans-1077"/>
      <use x="702.246094" xlink:href="#DejaVuSans-1090"/>
      <use x="760.498047" xlink:href="#DejaVuSans-1100"/>
     </g>
    </g>
    <g id="patch_33">
     <path d="M 734.25625 42.076563 
L 754.25625 42.076563 
L 754.25625 35.076563 
L 734.25625 35.076563 
z
" style="fill:#ff7f0e;"/>
    </g>
    <g id="text_21">
     <!-- Полная сеть -->
     <g transform="translate(762.25625 42.076563)scale(0.1 -0.1)">
      <defs>
       <path d="M 65.375 72.90625 
L 65.375 0 
L 55.515625 0 
L 55.515625 64.59375 
L 19.671875 64.59375 
L 19.671875 0 
L 9.8125 0 
L 9.8125 72.90625 
z
" id="DejaVuSans-1055"/>
      </defs>
      <use xlink:href="#DejaVuSans-1055"/>
      <use x="75.195312" xlink:href="#DejaVuSans-1086"/>
      <use x="136.376953" xlink:href="#DejaVuSans-1083"/>
      <use x="200.292969" xlink:href="#DejaVuSans-1085"/>
      <use x="265.673828" xlink:href="#DejaVuSans-1072"/>
      <use x="326.953125" xlink:href="#DejaVuSans-1103"/>
      <use x="387.109375" xlink:href="#DejaVuSans-32"/>
      <use x="418.896484" xlink:href="#DejaVuSans-1089"/>
      <use x="473.876953" xlink:href="#DejaVuSans-1077"/>
      <use x="535.400391" xlink:href="#DejaVuSans-1090"/>
      <use x="593.652344" xlink:href="#DejaVuSans-1100"/>
     </g>
    </g>
   </g>
  </g>
 </g>
 <defs>
  <clipPath id="pd4687f7ce2">
   <rect height="391.296164" width="799.18" x="54.02" y="10.8"/>
  </clipPath>
 </defs>
</svg>
